<svg width="37" height="40" viewBox="0 0 37 40" fill="none" xmlns="http://www.w3.org/2000/svg">
<path d="M6 39.9918L6 3L19.5 3C21.7341 3.00201 24.3007 4.04165 26.2448 4.48547C28.1889 4.88911 29.8459 2.47725 31.293 3.48327C32.7401 4.44909 29.4049 8.28902 30.2308 9.9375C31.0981 11.5458 37.0023 10.6289 37 13C36.9978 15.2907 31.1012 16.3441 30.2308 18.0312C29.4017 19.7184 35.9491 23.4162 34.5 24.5C33.0509 25.5838 28.6728 23.2918 26.7692 23.8125C24.8656 24.3332 25.6514 30.002 23.5 30L16.3846 26.125L14.0769 27.2812L12.5 35.5L6 39.9918ZM14.0769 21.5H19.8462C24.8109 21.5045 27.0595 17.5454 27.0635 13.3658C27.0654 11.3162 26.4049 9.86882 25.0818 9.02366C23.7586 8.17854 21.8559 7.75481 19.3735 7.7526L14.0769 9.9375V21.5Z" fill="#FD6F40"/>
<path d="M6 39.9922L6 20.3374L19.0095 2.99994C21.0947 3.00184 23.0446 3.21171 24.859 3.62956C26.6736 4.00957 28.2562 4.67315 29.6068 5.62029C30.9574 6.52959 32.0181 7.76024 32.789 9.31225C33.5984 10.8265 34.0021 12.6997 34 14.932C33.9979 17.0887 33.5907 18.9613 32.7783 20.5497C32.0045 22.1381 30.9414 23.4425 29.5889 24.4629C28.2364 25.4832 26.6718 26.2385 24.8951 26.7288C23.1184 27.219 21.226 27.4633 19.218 27.4614L14.5264 27.4572L14.5226 31.4854C14.5181 36.1879 10.7025 39.9965 6 39.9922V39.9922ZM14.5327 20.8169L18.7031 20.8206C23.3368 20.8248 25.6555 18.8595 25.6592 14.9245C25.6611 12.9948 25.0445 11.6321 23.8097 10.8364C22.5747 10.0408 20.7988 9.64185 18.482 9.63977L14.5433 9.63617L14.5327 20.8169Z" fill="#BBCBE5"/>
<path d="M6 9.5L17.7018 3.00002L18.9989 3.00003L5.9984 20.5L6 9.5Z" fill="#02A340"/>
</svg>
