<svg width="3985" height="584" viewBox="0 0 3985 584" fill="none" xmlns="http://www.w3.org/2000/svg">
<rect y="1" width="3985" height="583" fill="#F2F5FA"/>
<path d="M5.60192e-07 118.5L0 0.5H276L538 124.5L0 583.478L5.60192e-07 118.5Z" fill="#FFA800" fill-opacity="0.31"/>
<path d="M5.15418e-07 118.004L0 0H253.941L495 124.005L0 583L5.15418e-07 118.004Z" fill="#F2F5FA"/>
<rect x="1296.87" y="161.536" width="292" height="292" transform="rotate(20.1698 1296.87 161.536)" stroke="#FF6B00" stroke-opacity="0.06" stroke-width="20"/>
<rect x="1861.62" y="520.393" width="70.1233" height="70.1233" transform="rotate(-45.9817 1861.62 520.393)" stroke="#00FF66" stroke-opacity="0.06" stroke-width="21"/>
<path d="M2724 1L2592 257L2319.5 1H2724Z" fill="#D7E6FF"/>
<path d="M1001.42 88.9539L972.646 117.634L960.986 85.0149L1001.42 88.9539Z" fill="#FFDE6A"/>
<path d="M1058.58 78.829L1023.32 99.0225L1020.56 64.4916L1058.58 78.829Z" fill="#FFDE6A"/>
<path d="M1114.65 83.8225L1075.94 96.1419L1080.51 61.8039L1114.65 83.8225Z" fill="#FFDE6A"/>
<circle cx="1798.35" cy="212.701" r="64" fill="#13B5FF" fill-opacity="0.19"/>
<circle cx="2114.35" cy="196.701" r="12" fill="#01081B" fill-opacity="0.4"/>
<circle cx="1963.35" cy="136.701" r="12" fill="#01081B" fill-opacity="0.4"/>
<path d="M746.391 115.431L1055 584H285L746.391 115.431Z" fill="#D7E6FF"/>
</svg>
