<svg width="16" height="13" viewBox="0 0 17 13" fill="none" xmlns="http://www.w3.org/2000/svg" class="me-1">
<path d="M8.84219 10.7647C8.84219 10.7647 8.10057 10.7647 8.10057 10.0019C8.10057 9.23909 8.84219 6.95066 12.5503 6.95066C16.2584 6.95066 17 9.23909 17 10.0019C17 10.7647 16.2584 10.7647 16.2584 10.7647H8.84219ZM12.5503 6.18786C13.1404 6.18786 13.7063 5.94675 14.1235 5.51759C14.5407 5.08843 14.7751 4.50636 14.7751 3.89943C14.7751 3.2925 14.5407 2.71043 14.1235 2.28127C13.7063 1.85211 13.1404 1.61101 12.5503 1.61101C11.9602 1.61101 11.3943 1.85211 10.9771 2.28127C10.5598 2.71043 10.3254 3.2925 10.3254 3.89943C10.3254 4.50636 10.5598 5.08843 10.9771 5.51759C11.3943 5.94675 11.9602 6.18786 12.5503 6.18786V6.18786Z" fill="#00000f"/>
<path d="M0.965133 10.4786C0.965133 10.4786 0.25 10.4786 0.25 9.76351C0.25 9.04838 0.965133 6.90298 4.5408 6.90298C8.11646 6.90298 8.83159 9.04838 8.83159 9.76351C8.83159 10.4786 8.11646 10.4786 8.11646 10.4786H0.965133ZM4.5408 6.18784C5.10979 6.18784 5.65548 5.96181 6.05782 5.55947C6.46016 5.15713 6.68619 4.61144 6.68619 4.04245C6.68619 3.47345 6.46016 2.92776 6.05782 2.52542C5.65548 2.12308 5.10979 1.89705 4.5408 1.89705C3.9718 1.89705 3.42611 2.12308 3.02377 2.52542C2.62143 2.92776 2.3954 3.47345 2.3954 4.04245C2.3954 4.61144 2.62143 5.15713 3.02377 5.55947C3.42611 5.96181 3.9718 6.18784 4.5408 6.18784V6.18784Z" fill="#00000f"/>
<path d="M3.33636 12.6316C3.33636 12.6316 2.29252 12.6316 2.29252 11.5877C2.29252 10.5439 3.33636 7.41235 8.55557 7.41235C13.7748 7.41235 14.8186 10.5439 14.8186 11.5877C14.8186 12.6316 13.7748 12.6316 13.7748 12.6316H3.33636ZM8.55557 6.36851C9.38611 6.36851 10.1826 6.03858 10.7699 5.45131C11.3572 4.86403 11.6871 4.06751 11.6871 3.23698C11.6871 2.40645 11.3572 1.60993 10.7699 1.02266C10.1826 0.435381 9.38611 0.105453 8.55557 0.105453C7.72504 0.105453 6.92852 0.435381 6.34125 1.02266C5.75397 1.60993 5.42405 2.40645 5.42405 3.23698C5.42405 4.06751 5.75397 4.86403 6.34125 5.45131C6.92852 6.03858 7.72504 6.36851 8.55557 6.36851V6.36851Z" fill="#F3F6FB"/>
<path d="M3.89718 12.338C3.89718 12.338 2.96751 12.338 2.96751 11.4083C2.96751 10.4787 3.89718 7.68964 8.54554 7.68964C13.1939 7.68964 14.1236 10.4787 14.1236 11.4083C14.1236 12.338 13.1939 12.338 13.1939 12.338H3.89718ZM8.54554 6.75997C9.28523 6.75997 9.99463 6.46612 10.5177 5.94308C11.0407 5.42004 11.3346 4.71064 11.3346 3.97095C11.3346 3.23125 11.0407 2.52186 10.5177 1.99881C9.99463 1.47577 9.28523 1.18193 8.54554 1.18193C7.80585 1.18193 7.09645 1.47577 6.57341 1.99881C6.05037 2.52186 5.75652 3.23125 5.75652 3.97095C5.75652 4.71064 6.05037 5.42004 6.57341 5.94308C7.09645 6.46612 7.80585 6.75997 8.54554 6.75997V6.75997Z" fill="black"/>
</svg>