<svg width="3981" height="1406" viewBox="0 0 3981 1406" fill="none" xmlns="http://www.w3.org/2000/svg">
<path d="M6.69523e-07 141.877L0 1H329.866L643 149.04L0 697L6.69523e-07 141.877Z" fill="#FFA800" fill-opacity="0.31"/>
<path d="M3519 107L3651 35H3980.87L3651 107L3519 209.5V107Z" fill="#FFA800" fill-opacity="0.13"/>
<path d="M936.609 1100.32L1126 1004L1378.95 1251.45L1053.46 1161.73L888.925 1191.05L936.609 1100.32Z" fill="#FFA800" fill-opacity="0.13"/>
<path d="M6.16419e-07 141.079L0 0H303.703L592 148.252L0 697L6.16419e-07 141.079Z" fill="#BBCBE5"/>
<rect x="1701.43" y="520.281" width="96.0105" height="96.0105" transform="rotate(20.1698 1701.43 520.281)" stroke="#FF6B00" stroke-opacity="0.06" stroke-width="20"/>
<rect x="3469.18" y="216.806" width="282.215" height="282.215" transform="rotate(70.1067 3469.18 216.806)" stroke="#FF6B00" stroke-opacity="0.06" stroke-width="20"/>
<rect x="1380.35" y="199.524" width="169.595" height="169.595" transform="rotate(-1.60145 1380.35 199.524)" fill="#DF2222" fill-opacity="0.06"/>
<rect x="2668.82" y="1013.39" width="121.814" height="121.814" transform="rotate(26.8431 2668.82 1013.39)" fill="#DF2222" fill-opacity="0.06"/>
<rect x="2222.12" y="622.026" width="87.9111" height="87.9111" transform="rotate(-45.9817 2222.12 622.026)" stroke="#00FF66" stroke-opacity="0.06" stroke-width="21"/>
<path d="M2860.6 526.54L2916.92 402.388L2975.37 524.921L2919.66 508.432L2916.46 507.483L2913.29 508.562L2860.6 526.54Z" stroke="#00FF66" stroke-opacity="0.06" stroke-width="21"/>
<path d="M3256 1L3098.06 307L2772 1H3256Z" fill="#D7E6FF"/>
<path d="M1196.9 106.318L1162.51 140.597L1148.58 101.61L1196.9 106.318Z" fill="#FFDE6A"/>
<path d="M2775.35 603.239L2821.48 618.394L2793.03 648.466L2775.35 603.239Z" fill="#FFDE6A"/>
<path d="M1265.22 94.2168L1223.08 118.352L1219.78 77.0806L1265.22 94.2168Z" fill="#FFDE6A"/>
<path d="M2848.68 314.244L2833.24 268.206L2874.36 273.033L2848.68 314.244Z" fill="#FFDE6A"/>
<path d="M1332.24 100.185L1285.97 114.91L1291.43 73.8685L1332.24 100.185Z" fill="#FFDE6A"/>
<path d="M2480.31 260.817L2434.04 275.541L2439.5 234.5L2480.31 260.817Z" fill="#FFDE6A"/>
<path d="M1954.57 439.443L1936.56 484.537L1908.32 454.253L1954.57 439.443Z" fill="#FFDE6A"/>
<path d="M1650.55 982.127L1612.69 1012.53L1603 972.278L1650.55 982.127Z" fill="#FFDE6A"/>
<path d="M1272.66 864.999L1274.84 913.508L1236.63 897.557L1272.66 864.999Z" fill="#FFDE6A"/>
<circle cx="2149.5" cy="254.5" r="76.5" fill="#13B5FF" fill-opacity="0.19"/>
<path d="M1892.14 1029.44C1901.44 1037.88 1908.04 1048.88 1911.09 1061.06C1914.15 1073.24 1913.52 1086.06 1909.29 1097.88C1905.06 1109.71 1897.42 1120.01 1887.34 1127.5C1877.25 1134.98 1865.17 1139.3 1852.63 1139.92C1840.08 1140.54 1827.64 1137.43 1816.86 1130.97C1806.09 1124.52 1797.47 1115.01 1792.1 1103.66C1786.73 1092.31 1784.85 1079.62 1786.69 1067.19C1788.53 1054.77 1794.01 1043.17 1802.44 1033.86L1849.5 1076.5L1892.14 1029.44Z" fill="#13B5FF" fill-opacity="0.19"/>
<circle cx="1235.5" cy="530.5" r="45.5" fill="#00FF75" fill-opacity="0.13"/>
<circle cx="2671.5" cy="437.5" r="132.5" stroke="#0D1B65" stroke-opacity="0.13" stroke-width="24"/>
<circle cx="716.5" cy="818.5" r="183.5" stroke="#0D1B65" stroke-opacity="0.13" stroke-width="24"/>
<circle cx="2527" cy="235" r="14" fill="#01081B" fill-opacity="0.4"/>
<circle cx="2346.5" cy="163.5" r="14.5" fill="#01081B" fill-opacity="0.4"/>
<path d="M816.173 215L979 607L341 698L816.173 215Z" fill="#D7E6FF" fill-opacity="0.59"/>
<path d="M2900.94 995.298L3340.42 1262.42L2704.76 1368.57L2900.94 995.298Z" fill="#D7E6FF" fill-opacity="0.59"/>
</svg>
